<svg xmlns="http://www.w3.org/2000/svg" xmlns:xlink="http://www.w3.org/1999/xlink" version="1.1" x="0px" y="0px" viewBox="0 0 42 52.5" enable-background="new 0 0 42 42" xml:space="preserve"><path d="M31.84,30.822c0,0,2.428-1.618,1.979-2.606c-0.449-0.988-2.787-0.18-5.303,1.259c0,0,1.707,5.646-8.27,3.093  c0,0,5.662-0.127,6.561-0.937c0.899-0.809,0.791-2.684-3.137-2.718c-2.877-0.025-4.227-2.766-6.813-3.23  c-2.321-0.418-6.137,1.18-11.843,5.457l4.267,4.267c0,0,2.877,0,3.596,0s5.087,1.463,9.419,2.304  c2.89,0.561,12.331-5.27,14.128-6.618C38.222,29.744,35.436,28.396,31.84,30.822z"/><path d="M23.205,24.752c5.652,0,10.25-4.598,10.25-10.25s-4.598-10.25-10.25-10.25s-10.25,4.598-10.25,10.25  S17.553,24.752,23.205,24.752z M23.205,5.752c4.824,0,8.75,3.925,8.75,8.75s-3.926,8.75-8.75,8.75s-8.75-3.925-8.75-8.75  S18.381,5.752,23.205,5.752z"/><path d="M23.324,18.463c-0.26,0-0.49-0.029-0.691-0.088c-0.202-0.057-0.387-0.138-0.555-0.241s-0.326-0.224-0.473-0.36  c-0.15-0.138-0.303-0.28-0.461-0.429l-1.354,1.039c0.398,0.412,0.817,0.753,1.26,1.022c0.441,0.27,0.99,0.441,1.648,0.516v1.649  h1.051v-1.633c0.941-0.095,1.654-0.4,2.141-0.916s0.729-1.162,0.729-1.939c0-0.433-0.066-0.815-0.203-1.146  c-0.135-0.33-0.322-0.631-0.563-0.901c-0.239-0.269-0.526-0.518-0.862-0.745c-0.334-0.227-0.697-0.455-1.088-0.682  c-0.26-0.153-0.527-0.305-0.806-0.456c-0.278-0.151-0.528-0.325-0.747-0.52c-0.336-0.317-0.504-0.684-0.504-1.103  c0-0.369,0.123-0.668,0.369-0.896c0.246-0.227,0.598-0.341,1.053-0.341c0.385,0,0.717,0.076,0.994,0.226  c0.277,0.151,0.533,0.351,0.768,0.599l1.335-1.086c-0.372-0.343-0.759-0.612-1.159-0.808c-0.401-0.196-0.887-0.326-1.455-0.389  V7.433h-1.051v1.404c-0.424,0.053-0.807,0.163-1.15,0.329c-0.346,0.167-0.635,0.375-0.867,0.627  c-0.234,0.251-0.412,0.532-0.536,0.844c-0.122,0.313-0.185,0.647-0.185,1.008c0,0.529,0.117,0.98,0.352,1.356  c0.232,0.375,0.525,0.706,0.875,0.991c0.351,0.286,0.729,0.542,1.137,0.77s0.785,0.457,1.133,0.69  c0.346,0.232,0.637,0.485,0.871,0.757c0.232,0.272,0.35,0.596,0.35,0.972c0,0.359-0.113,0.663-0.34,0.912  C24.109,18.339,23.772,18.463,23.324,18.463z"/></svg>